<?xml version="1.0" encoding="UTF-8" standalone="no"?>
<!-- Created with Inkscape (http://www.inkscape.org/) -->

<svg
   xmlns:dc="http://purl.org/dc/elements/1.1/"
   xmlns:cc="http://creativecommons.org/ns#"
   xmlns:rdf="http://www.w3.org/1999/02/22-rdf-syntax-ns#"
   xmlns:svg="http://www.w3.org/2000/svg"
   xmlns="http://www.w3.org/2000/svg"
   xmlns:xlink="http://www.w3.org/1999/xlink"
   xmlns:sodipodi="http://sodipodi.sourceforge.net/DTD/sodipodi-0.dtd"
   xmlns:inkscape="http://www.inkscape.org/namespaces/inkscape"
   id="svg3036"
   version="1.1"
   inkscape:version="0.48.4 r9939"
   width="317.07791"
   height="139.21082"
   sodipodi:docname="logotipo.png"
   inkscape:export-filename="/home/tin/lab/carrillo/encuestas/static/images/logotipo.png"
   inkscape:export-xdpi="30.9"
   inkscape:export-ydpi="30.9">
  <metadata
     id="metadata3042">
    <rdf:RDF>
      <cc:Work
         rdf:about="">
        <dc:format>image/svg+xml</dc:format>
        <dc:type
           rdf:resource="http://purl.org/dc/dcmitype/StillImage" />
        <dc:title></dc:title>
      </cc:Work>
    </rdf:RDF>
  </metadata>
  <defs
     id="defs3040">
    <linearGradient
       inkscape:collect="always"
       id="linearGradient3846">
      <stop
         style="stop-color:#f3000b;stop-opacity:1;"
         offset="0"
         id="stop3848" />
      <stop
         style="stop-color:#f3000b;stop-opacity:0;"
         offset="1"
         id="stop3850" />
    </linearGradient>
    <linearGradient
       inkscape:collect="always"
       xlink:href="#linearGradient3846"
       id="linearGradient3852"
       x1="222.51447"
       y1="329.47211"
       x2="1435.7295"
       y2="329.47211"
       gradientUnits="userSpaceOnUse" />
    <linearGradient
       inkscape:collect="always"
       xlink:href="#linearGradient3846"
       id="linearGradient3860"
       x1="222.01802"
       y1="329.62543"
       x2="1436.1844"
       y2="329.62543"
       gradientUnits="userSpaceOnUse" />
    <linearGradient
       inkscape:collect="always"
       xlink:href="#linearGradient3846"
       id="linearGradient3870"
       gradientUnits="userSpaceOnUse"
       x1="222.01802"
       y1="329.62543"
       x2="1436.1844"
       y2="329.62543" />
    <linearGradient
       inkscape:collect="always"
       xlink:href="#linearGradient3846"
       id="linearGradient3873"
       gradientUnits="userSpaceOnUse"
       x1="222.01802"
       y1="329.62543"
       x2="1436.1844"
       y2="329.62543"
       gradientTransform="matrix(0.99572175,0.09240235,-0.09240235,0.99572175,33.950303,-75.121557)" />
    <linearGradient
       inkscape:collect="always"
       xlink:href="#linearGradient3846"
       id="linearGradient3888"
       gradientUnits="userSpaceOnUse"
       gradientTransform="matrix(0.99572175,0.09240235,-0.09240235,0.99572175,33.950303,-75.121557)"
       x1="222.01802"
       y1="329.62543"
       x2="1436.1844"
       y2="329.62543" />
    <linearGradient
       inkscape:collect="always"
       xlink:href="#linearGradient3846"
       id="linearGradient3891"
       gradientUnits="userSpaceOnUse"
       gradientTransform="matrix(0.99998015,0.00630183,-0.00630183,0.99998015,1.8969796,-5.469473)"
       x1="222.01802"
       y1="329.62543"
       x2="1436.1844"
       y2="329.62543" />
  </defs>
  <sodipodi:namedview
     pagecolor="#ffffff"
     bordercolor="#666666"
     borderopacity="1"
     objecttolerance="10"
     gridtolerance="10"
     guidetolerance="10"
     inkscape:pageopacity="0"
     inkscape:pageshadow="2"
     inkscape:window-width="1920"
     inkscape:window-height="1056"
     id="namedview3038"
     showgrid="false"
     fit-margin-top="10"
     fit-margin-left="10"
     fit-margin-right="10"
     fit-margin-bottom="10"
     inkscape:zoom="0.99096045"
     inkscape:cx="527.10325"
     inkscape:cy="-179.64332"
     inkscape:window-x="0"
     inkscape:window-y="24"
     inkscape:window-maximized="1"
     inkscape:current-layer="g3046" />
  <g
     id="g3046"
     transform="matrix(0.24336222,0,0,0.24336222,-43.204618,-10.628519)">
    <path
       style="fill:#fccfd1"
       d="m 327.40577,591.91362 c -20.83597,-5.82677 -40.38554,-19.32798 -55.00169,-37.98497 -18.67057,-23.8323 -28.26723,-53.48042 -28.64249,-88.48871 -0.1831,-17.08103 4.11878,-48.91288 9.16943,-67.84937 14.58321,-54.67716 40.68859,-101.05513 74.80377,-132.89397 21.14419,-19.73333 49.35377,-33.4982 74.60314,-36.40259 13.11479,-1.50858 31.26677,0.66048 41.71369,4.98453 26.70808,11.05468 44.06135,34.65216 47.5596,64.67298 1.36828,11.74217 -0.60345,30.00633 -4.53308,41.98996 -8.28138,25.25454 -26.12166,50.42788 -46.84551,66.10088 -20.49054,15.49657 -40.62236,21.71637 -61.31589,18.94383 -8.54887,-1.14542 -9.80508,-1.57142 -13.63866,-4.62536 -5.13457,-4.09034 -6.85643,-8.87582 -7.5701,-21.03926 -0.60242,-10.26737 0.66609,-14.85624 5.15199,-18.63732 2.97914,-2.51105 3.74837,-2.63609 12.97437,-2.10906 12.20616,0.69727 18.5304,-0.19091 27.25358,-3.82752 19.87965,-8.28767 35.9773,-29.45149 39.02045,-51.30074 2.87093,-20.61297 -4.15853,-38.74931 -17.38438,-44.85236 -9.24737,-4.26718 -23.28298,-4.1537 -35.6065,0.28791 -8.17497,2.94638 -22.88955,13.80684 -31.04906,22.91649 -43.6804,48.76682 -69.16555,156.35505 -48.50299,204.76052 12.31777,28.85639 35.00603,39.36668 70.91944,32.85327 30.52683,-5.53651 54.27796,-19.02315 93.8763,-53.30599 7.16497,-6.20317 17.997,-15.38186 24.0712,-20.39706 l 11.04397,-9.11856 1.73867,-7.24498 c 2.69475,-11.22894 9.69385,-30.28949 15.07748,-41.06028 13.67896,-27.36685 36.13992,-48.84456 58.09331,-55.5502 12.42671,-3.79575 19.49187,-2.76314 25.66631,3.7512 3.74836,3.9547 7.64573,4.85129 16.43995,3.78203 21.43607,-2.60635 25.5408,7.69286 21.5596,54.09547 -3.20899,37.40204 -3.69696,47.38367 -2.69601,55.1477 1.22013,9.46426 2.52731,12.48002 5.59868,12.91672 3.2985,0.469 12.56834,-6.0313 19.17925,-13.44909 7.97765,-8.95134 21.16764,-29.06599 21.80147,-33.2471 0.2885,-1.90334 1.07177,-11.56428 1.74054,-21.46876 0.71385,-10.57212 2.75729,-27.79887 4.94871,-41.71879 3.61703,-22.97532 3.83121,-23.8521 6.90646,-28.2718 3.70273,-5.32152 8.92471,-7.5215 18.9288,-7.97456 5.31355,-0.24064 6.65586,0.0163 9.07434,1.73742 4.41182,3.13958 5.38292,7.34274 6.66888,28.86474 0.41143,6.88551 0.90289,12.72531 1.09214,12.97731 0.18927,0.252 1.21719,-2.06725 2.28429,-5.15388 10.54148,-30.49177 27.93644,-47.30439 46.29257,-44.7428 10.88435,1.5189 17.44713,8.96226 17.80287,20.19161 0.0972,3.06925 -0.49041,13.43978 -1.30588,23.04565 -1.81104,21.33337 -0.92465,29.30187 3.88283,34.90608 3.7095,4.32426 6.82972,4.67576 15.65787,1.76387 5.16218,-1.70271 17.9419,-9.13978 19.42623,-11.30496 0.39113,-0.57054 1.79782,-11.5642 3.126,-24.43035 2.69354,-26.09251 5.80224,-41.19514 9.64191,-46.84232 3.1565,-4.6424 8.03873,-6.77068 17.16056,-7.48066 13.57101,-1.05626 15.89834,2.54402 17.2961,26.75615 1.07578,18.63478 1.13823,18.72681 5.17492,7.62719 9.93183,-27.30933 25.32852,-41.97915 43.29416,-41.25027 5.07262,0.2058 6.39262,0.67884 10.80849,3.87329 4.15963,3.00907 5.37444,4.6408 7.01928,9.42821 1.84335,5.36516 1.87606,7.10548 0.44655,23.75107 -0.8484,9.87893 -1.49267,20.68014 -1.43172,24.00266 0.15876,8.65237 3.06447,16.8939 6.84031,19.40137 2.80447,1.86238 3.49952,1.94777 8.58078,1.05432 5.93829,-1.04417 17.89782,-6.73458 20.90276,-9.94561 1.35879,-1.45202 2.20526,-4.5487 3.25031,-11.89076 3.02848,-21.27842 9.29028,-50.9749 11.43058,-54.21123 5.5571,-8.40276 22.629,-16.21986 33.7446,-15.45134 7.2163,0.49893 10.8272,2.88947 12.6424,8.36957 1.2363,3.73299 0.9272,6.89951 -4.3076,44.12709 -7.7543,55.14842 -8.9755,76.06899 -4.9543,84.89796 2.3879,5.24282 9.2153,3.31132 21.1126,-5.97292 7.8091,-6.09401 21.3397,-19.86961 21.6484,-22.04037 0.1353,-0.95152 -0.4717,-4.27488 -1.3486,-7.38525 -8.2825,-29.37315 -8.2778,-71.288 0.014,-126.63334 6.5455,-43.68751 11.5738,-63.78088 22.7346,-90.8476 18.5706,-45.03635 42.7086,-69.03208 66.0962,-65.70676 13.4734,1.91572 21.2944,13.19678 24.8648,35.86535 0.76,4.82561 1.4795,12.56623 1.5986,17.20136 0.1194,4.63513 0.3789,8.64319 0.5769,8.90678 0.1979,0.2636 1.6583,-2.85273 3.2453,-6.92518 10.981,-28.17861 28.8177,-52.73919 44.3727,-61.10026 11.0044,-5.91499 23.4593,-6.31533 31.3509,-1.00773 13.5805,9.13381 19.3777,37.27061 15.5246,75.34773 -3.1903,31.52757 -13.4568,66.38478 -37.6902,127.96864 -18.2903,46.48 -19.8782,50.86764 -21.7287,60.03916 -1.4019,6.94761 -1.6951,11.0299 -1.1494,15.99748 0.7871,7.16598 4.5923,17.40892 7.1772,19.31997 2.5944,1.9181 9.3183,-1.10972 20.3317,-9.15563 l 10.0581,-7.34806 -1.2765,-5.65411 c -0.702,-3.10976 -1.7944,-10.5375 -2.4274,-16.50606 -1.0322,-9.73248 -0.8918,-12.69066 1.3599,-28.67598 2.2166,-15.73122 2.9122,-18.71571 5.9285,-25.41857 13.2124,-29.36157 38.1439,-47.24717 71.9967,-51.65003 8.8202,-1.14715 11.7113,-1.04693 25.3049,0.87762 13.6015,1.92583 16.5103,2.65793 25.5751,6.43871 12.0997,5.04653 20.872,10.06732 29.4257,16.84178 6.5902,5.21927 32.1705,29.80274 33.8469,32.52781 0.9884,1.60671 1.0264,22.32002 0.054,29.2671 -0.668,4.76796 -2.103,4.58004 -7.7557,-1.01566 -11.1447,-11.032 -55.5628,-43.024 -57.6055,-41.48999 -0.3212,0.24125 0.1878,1.92911 1.1301,3.7509 3.1305,6.04931 7.733,22.75658 9.1446,33.19496 1.3103,9.68948 1.2329,11.41095 -1.3092,29.10554 -2.9229,20.34479 -4.0233,23.82869 -12.1076,38.32164 -13.678,24.52064 -37.7959,38.1699 -63.5779,35.98102 -12.2161,-1.03716 -18.6815,-3.40747 -28.8666,-10.58293 l -8.0841,-5.69534 -10.9461,7.27469 c -14.0992,9.37054 -24.0074,14.45051 -35.204,18.0494 -8.2501,2.65179 -9.6539,2.79832 -16.917,1.76562 -9.5798,-1.3621 -15.3638,-4.84609 -22.9433,-13.82012 -2.6914,-3.18653 -5.218,-5.83987 -5.6147,-5.89627 -0.3969,-0.0564 -4.6287,2.69479 -9.404,6.11377 -11.1523,7.98455 -23.1598,15.00882 -33.3681,19.52018 -22.1679,9.79658 -35.7577,6.49388 -50.3535,-12.23742 -3.5886,-4.60533 -6.6097,-8.3856 -6.7136,-8.40057 -0.1039,-0.015 -7.4709,5.44613 -16.3714,12.13582 -18.1035,13.60701 -32.7068,21.35175 -46.5081,24.66541 -11.2948,2.71185 -24.8545,1.50765 -31.9868,-2.84063 -10.12658,-6.17382 -15.70103,-18.63128 -16.6498,-37.20812 -0.25675,-5.02689 -0.54564,-9.28077 -0.64203,-9.45306 -0.0964,-0.17229 -3.01479,0.85711 -6.48538,2.28756 -15.54565,6.40735 -32.17585,5.51414 -43.69419,-2.3468 -8.76397,-5.98116 -15.90179,-16.63626 -20.95085,-31.27468 -3.84387,-11.14428 -3.92916,-11.28108 -4.96816,-7.96921 -0.58142,1.85336 -5.10973,20.52002 -10.06293,41.4815 -10.12687,42.85627 -12.85159,52.27133 -16.84599,58.21034 -6.07263,9.02903 -18.75146,10.73196 -28.72329,3.85791 -9.13955,-6.30032 -13.6913,-19.67181 -15.03624,-44.17136 -0.17673,-3.21943 -0.67627,-5.90399 -1.11008,-5.96567 -0.43382,-0.0617 -3.99347,1.4338 -7.91034,3.32327 -10.43236,5.03253 -17.54605,6.35232 -28.73433,5.33102 -8.05675,-0.73545 -10.27801,-1.3075 -14.8613,-3.82731 -10.85081,-5.96561 -19.16299,-17.62119 -24.72848,-34.67503 -1.7718,-5.42916 -3.41176,-9.7283 -3.64436,-9.55361 -0.23259,0.17468 -4.93284,19.1962 -10.44499,42.27004 -5.51213,23.07383 -10.91334,44.76781 -12.00267,48.20882 -3.91057,12.35291 -9.54571,18.63164 -17.67295,19.69138 -11.44221,1.49201 -20.38157,-4.04989 -25.85691,-16.02986 l -1.86353,-4.07735 -7.05789,7.03545 c -9.65237,9.62171 -20.31937,16.70275 -29.92101,19.86237 -6.88628,2.26607 -9.08273,2.50772 -16.29505,1.79272 -7.68037,-0.76137 -8.79168,-1.13728 -14.13057,-4.77967 -3.18704,-2.17431 -8.01433,-6.7891 -10.7273,-10.25508 -2.71297,-3.46597 -5.07407,-6.19114 -5.24688,-6.05594 -0.17281,0.13521 -2.66147,2.63925 -5.53032,5.56454 -11.9577,12.1929 -28.64171,21.97123 -41.92901,24.57415 -6.42507,1.25865 -8.7231,1.21447 -17.30161,-0.33262 -8.97855,-1.61924 -10.55837,-2.22498 -17.10084,-6.55687 -5.04461,-3.34011 -8.75878,-6.83713 -12.37327,-11.64984 -2.8407,-3.78238 -5.53906,-6.56208 -5.99636,-6.17712 -0.4573,0.38496 -5.25054,5.29865 -10.65166,10.91931 -31.93928,33.2376 -55.37053,48.78718 -90.83684,60.28164 -13.33481,4.32174 -35.54591,8.71282 -48.95337,9.67794 -11.25926,0.81051 -25.86433,-0.42045 -34.87015,-2.93891 z m 248.47544,-96.57158 c 3.79079,-1.92453 9.62898,-11.81864 12.8331,-21.74859 2.45566,-7.61039 3.31246,-13.16614 6.59779,-42.78243 2.07659,-18.71994 3.91651,-35.03891 4.08869,-36.26437 0.52296,-3.72069 -2.45208,-2.99547 -9.30445,2.26831 -10.88622,8.36243 -19.81882,23.80132 -26.19525,45.27522 -6.48884,21.8525 -6.35505,42.81201 0.32607,51.08183 2.41417,2.98823 7.99539,4.02747 11.65405,2.17003 z m 578.11039,-71.76849 c 4.4609,-1.53047 21.9574,-13.62795 27.9773,-19.34417 l 3.3962,-3.22469 -1.8593,-7.70096 c -5.9758,-24.75262 -7.0901,-44.47564 -4.6194,-81.76054 0.5106,-7.70484 1.0241,-16.72236 1.1411,-20.03891 l 0.2128,-6.03008 -6.8912,18.21128 c -3.7902,10.01621 -11.9508,31.0609 -18.1348,46.766 -15.0472,38.21459 -17.1752,48.89783 -12.5718,63.1144 1.6365,5.05402 5.1163,11.22317 6.4365,11.41088 0.32,0.0455 2.5307,-0.58594 4.9126,-1.40321 z m 194.6516,-13.4035 c 21.3815,-7.17547 26.1385,-83.58586 6.0316,-96.88325 -7.1016,-4.69666 -14.3814,-1.96754 -21.1243,7.91942 -13.4116,19.66531 -16.3963,58.70119 -6.0371,78.95689 4.2853,8.37881 13.2833,12.64021 21.1298,10.00694 z M 1136.3943,296.15847 c 18.5904,-50.66146 28.345,-94.60966 25.7339,-115.94181 -0.6289,-5.13799 -2.0329,-4.48735 -6.8773,3.18709 -6.9239,10.96876 -12.0557,28.52474 -18.5777,63.55408 -4.0293,21.64141 -8.0729,62.99081 -6.1862,63.25909 0.3912,0.0555 3.0495,-6.27068 5.9073,-14.05845 z m 92.3628,0.53137 c 0.5736,-1.73741 2.9192,-8.22584 5.2124,-14.41873 4.8323,-13.04945 12.2108,-36.04714 15.4982,-48.30507 6.5521,-24.43128 10.7948,-55.14101 8.9187,-64.55558 l -0.8097,-4.06304 -2.5341,2.66627 c -1.3938,1.46644 -4.1301,5.84631 -6.0806,9.73308 -6.2865,12.52751 -8.2569,20.14627 -17.8871,69.16401 -2.3388,11.90393 -5.6242,53.92812 -4.1662,53.29042 0.443,-0.19384 1.2749,-1.77395 1.8484,-3.51136 z m -206.0636,-11.31636 c -12.2173,-5.22232 -19.2502,-21.43776 -15.4146,-35.54132 4.8352,-17.77927 23.7856,-28.58621 45.1223,-25.73203 13.1855,1.7638 20.837,8.00789 24.3069,19.83561 2.0405,6.95548 0.044,20.93272 -3.8506,26.95284 -6.3148,9.7626 -18.2389,16.13234 -31.9366,17.06021 -8.1898,0.55476 -12.2452,-0.0183 -18.2275,-2.57529 z"
       id="path3060"
       inkscape:connector-curvature="0"
       inkscape:export-filename="/home/tin/lab/carrillo/encuestas/static/images/logotipo.png"
       inkscape:export-xdpi="99.655396"
       inkscape:export-ydpi="99.655396" />
    <path
       style="fill:#faa0a3"
       d="m 302.93173,567.67255 c -6.88298,-1.89822 -19.71229,-7.52708 -26.67246,-11.7025 -11.03077,-6.61741 -22.22124,-16.9981 -30.73804,-28.51377 -28.76378,-38.89189 -34.49685,-90.38778 -17.27927,-155.20699 14.34011,-53.98633 41.79635,-101.76812 76.24439,-132.68723 19.46615,-17.47202 42.24612,-29.04211 65.5862,-33.31167 46.98135,-8.59422 86.96801,18.54671 94.16108,63.9118 5.55961,35.06318 -11.64075,76.92419 -43.23386,105.21948 -17.78903,15.93214 -35.95315,24.17855 -56.21105,25.51948 -19.65181,1.30081 -29.36885,-4.24264 -31.58495,-18.01874 -1.57869,-9.8137 -1.01986,-18.11443 1.50469,-22.35059 2.85608,-4.79249 7.16348,-6.01291 18.60896,-5.27249 13.03058,0.84296 19.11831,-0.55581 31.07511,-7.14009 21.17606,-11.66109 35.22121,-38.60888 32.98638,-63.28944 -1.69404,-18.708 -10.53741,-29.83718 -26.25596,-33.04248 -18.9666,-3.86765 -38.29052,3.7079 -56.55448,22.17106 -42.23152,42.69214 -70.47413,146.15054 -54.7735,200.64647 8.07371,28.02335 27.31027,43.46986 54.30948,43.60929 33.13966,0.17115 66.64129,-14.27949 100.91466,-43.52865 6.2071,-5.29717 19.86386,-16.91189 30.34837,-25.81048 l 19.06275,-16.17925 1.72792,-7.52999 c 2.59974,-11.3292 9.43709,-29.79747 15.08714,-40.75169 9.68447,-18.77607 20.63347,-32.08873 35.34131,-42.97077 10.36708,-7.6704 19.8225,-11.95187 29.88298,-13.53126 8.10318,-1.27209 11.31303,-0.25541 17.22465,5.4557 4.40148,4.25219 8.20027,5.16577 16.41019,3.94648 11.036,-1.639 16.88675,0.66602 19.81181,7.80529 3.5837,8.74682 3.61641,22.09995 0.14495,59.20044 -3.09413,33.06799 -2.66809,48.18646 1.49902,53.19456 6.14582,7.38613 26.62653,-11.4787 42.22849,-38.89676 3.21882,-5.65659 3.46894,-6.62739 3.64014,-14.12827 0.29429,-12.89517 5.72331,-59.70777 8.20481,-70.74741 3.55529,-15.8166 7.42876,-19.37824 22.22837,-20.43881 6.97071,-0.49954 11.03079,1.38829 12.59058,5.85434 1.16675,3.34067 2.53012,15.54315 3.10063,27.75136 0.64867,13.88107 0.65012,13.89119 1.77047,12.35816 0.54646,-0.74776 1.99757,-4.39848 3.22469,-8.11273 10.01587,-30.31601 27.0029,-46.6635 45.72324,-44.00177 5.25344,0.74696 7.11355,1.48059 9.65048,3.8062 7.12815,6.53442 7.81104,11.0956 5.58803,37.32316 -2.07727,24.50787 -0.62438,34.12751 5.85024,38.73502 5.18063,3.68669 16.58632,0.68523 29.70162,-7.81607 l 4.45039,-2.88474 4.62415,-32.52228 c 4.84538,-34.07829 5.82117,-37.98863 10.62637,-42.58366 2.7192,-2.60025 11.31465,-4.75576 18.68937,-4.68679 4.71224,0.0441 5.26565,0.2913 7.59493,3.39275 2.97387,3.9597 3.96598,9.66021 4.91848,28.26104 0.38686,7.55468 0.95575,14.13651 1.26417,14.62629 0.30843,0.48976 1.88618,-2.92211 3.5061,-7.58196 6.51343,-18.73647 14.82128,-31.93749 24.47484,-38.89008 15.63846,-11.26297 33.44715,-7.27506 37.52495,8.40299 0.7062,2.71514 0.61486,9.46559 -0.2728,20.16238 -1.79639,21.64774 -1.7541,30.07337 0.18374,36.61262 2.97051,10.02393 9.0615,12.4871 20.55427,8.31199 3.64219,-1.32314 9.0492,-4.13682 12.01558,-6.25263 l 5.39342,-3.84694 4.69982,-28.1184 c 2.5849,-15.46511 5.45254,-30.17635 6.37253,-32.69164 3.35182,-9.16391 18.9593,-18.32403 32.7577,-19.22565 4.7283,-0.30898 5.9423,-0.0466 8.7563,1.89185 1.7969,1.23779 4.0076,3.64233 4.9126,5.34343 1.5949,2.99782 1.4757,4.30096 -3.8754,42.37642 -8.2619,58.78897 -9.4012,81.23725 -4.4906,88.50307 2.9581,4.37709 9.5091,2.88582 19.1588,-4.36143 7.5115,-5.64139 24.4416,-22.2271 24.7254,-24.22232 0.096,-0.68037 -0.9167,-6.14244 -2.2519,-12.13789 -5.2145,-23.41304 -6.1955,-38.63081 -4.6589,-72.28333 0.9837,-21.54298 8.266,-74.00606 12.9931,-93.60304 7.5455,-31.2811 19.391,-60.90124 32.1522,-80.39715 13.0935,-20.00393 26.7671,-30.51299 41.9536,-32.244151 7.1468,-0.814689 11.4064,0.318389 16.7227,4.448241 9.4088,7.30937 15.1561,26.75115 15.3198,51.82405 0.03,4.58741 0.3155,8.37785 0.6348,8.4232 0.319,0.0454 2.5593,-4.74952 4.9786,-10.65526 17.613,-42.99595 42.5076,-67.751121 64.9729,-64.608527 4.7695,0.667225 6.9009,1.533165 10.1748,4.134015 12.9098,10.255742 18.1314,37.458912 14.1915,73.934642 -3.6971,34.22749 -12.5588,64.07787 -39.1292,131.80431 -5.7798,14.73306 -12.3569,31.52442 -14.6157,37.31411 -5.5446,14.21285 -8.2318,31.48616 -6.2073,39.90106 1.5817,6.57441 4.9432,13.66517 7.2959,15.39006 1.2058,0.88411 2.8432,0.80473 6.0425,-0.29286 5.2259,-1.79299 24.2939,-15.3186 24.5966,-17.44725 0.1164,-0.81897 -0.5325,-5.8583 -1.4426,-11.19846 -2.4077,-14.13076 -2.5918,-26.65018 -0.593,-40.31185 2.8316,-19.35358 9.3499,-33.76401 21.3061,-47.10328 15.4187,-17.20225 36.6486,-26.91921 62.4483,-28.58265 7.9151,-0.51032 12.113,-0.1846 22.978,1.78282 20.2067,3.6591 36.917,11.34469 52.4504,24.12363 10.26,8.44073 31.859,30.12684 32.4024,32.53316 0.7277,3.22288 -0.4975,28.57782 -1.4142,29.26633 -0.4214,0.3164 -3.0796,-1.57607 -5.9071,-4.20551 -10.6314,-9.88647 -42.1681,-33.38124 -52.2989,-38.96245 -7.2506,-3.99455 -8.1662,-3.94997 -6.1604,0.30006 3.0959,6.55975 7.3156,19.89621 8.7467,27.64438 2.5145,13.61509 2.6704,21.86082 0.6817,36.06721 -4.1586,29.70242 -17.1286,51.95381 -37.8781,64.98134 -12.6967,7.97162 -26.09,10.72608 -41.5789,8.55109 -10.1289,-1.4224 -16.2599,-4.03035 -25.8557,-10.99857 l -7.0634,-5.12924 -8.8778,5.98549 c -19.7729,13.33094 -38.7042,21.88345 -49.525,22.37348 -9.5681,0.43331 -17.5947,-3.85866 -26.9749,-14.42439 -3.0855,-3.47539 -5.9058,-6.36094 -6.2673,-6.41234 -0.3616,-0.0514 -4.2557,2.46634 -8.6538,5.59497 -17.7883,12.65384 -34.7592,21.5685 -46.8234,24.59586 -14.7357,3.69767 -25.8136,-1.37599 -37.773,-17.29984 l -6.6785,-8.89256 -3.7544,3.22672 c -30.4329,26.15638 -57.9687,38.73197 -78.59832,35.8961 -18.08696,-2.48631 -26.88562,-15.19591 -28.36078,-40.96694 -0.27943,-4.88143 -0.76149,-9.21282 -1.07128,-9.62529 -0.30979,-0.41246 -2.96472,0.34934 -5.89987,1.69291 -9.59847,4.39368 -16.30702,5.27241 -27.92951,3.65832 -9.23237,-1.28219 -10.98912,-1.82981 -15.64438,-4.87715 -9.85528,-6.45122 -16.16152,-16.32624 -22.58848,-35.37152 -1.8707,-5.54353 -3.60692,-9.65387 -3.8583,-9.13408 -0.25137,0.51979 -4.43885,17.65091 -9.30553,38.06915 -12.2982,51.59741 -13.34269,55.5402 -16.46817,62.16519 -4.3248,9.16718 -11.56233,13.16954 -21.23266,11.74169 -8.59295,-1.26874 -16.24922,-9.30246 -19.58131,-20.54657 -1.64938,-5.56576 -4.45549,-27.78351 -3.95429,-31.30854 0.45112,-3.17283 -0.92785,-3.04949 -8.88737,0.79499 -17.20329,8.30918 -33.69067,8.49424 -46.47217,0.52161 -9.68758,-6.04275 -16.68095,-16.78686 -22.42816,-34.45702 -2.0874,-6.41783 -3.94463,-10.61103 -4.34076,-9.80051 -0.38082,0.77916 -4.27986,16.58771 -8.66452,35.13012 -14.9958,63.4159 -16.35732,67.73552 -23.02723,73.05705 -1.89305,1.51038 -5.28894,2.98678 -7.54639,3.28091 -11.82979,1.54131 -20.45833,-3.69797 -25.26464,-15.34083 -1.03541,-2.50822 -2.26916,-4.61538 -2.74166,-4.68255 -0.47249,-0.0672 -3.13971,2.39435 -5.92714,5.4701 -7.68492,8.47977 -20.98011,17.89189 -29.61085,20.96254 -17.66458,6.28469 -30.01997,2.6409 -41.72694,-12.30599 -2.87049,-3.6649 -5.4732,-6.69959 -5.7838,-6.74375 -0.3106,-0.0441 -3.30681,2.69617 -6.65824,6.08962 -17.86803,18.09213 -38.63276,27.11328 -56.54621,24.56628 -13.39906,-1.90514 -23.43335,-8.12151 -31.75179,-19.67071 -2.41468,-3.35248 -4.82698,-5.90442 -5.36067,-5.67099 -0.53369,0.23345 -4.88242,4.54086 -9.66383,9.57201 -28.27703,29.75402 -51.43539,46.49549 -79.61285,57.55313 -18.09248,7.1 -40.196,12.23823 -60.84818,14.1449 -8.50665,0.78536 -27.20366,-0.54468 -33.99809,-2.41849 z m 247.31312,-95.60041 c 5.26088,-3.04918 10.481,-12.40005 14.31656,-25.64551 2.12368,-7.3338 10.42238,-77.66563 9.35025,-79.24384 -0.32207,-0.47409 -2.56444,0.18254 -4.98305,1.45918 -13.55351,7.15416 -25.29544,25.6045 -32.29741,50.74959 -3.8736,13.91064 -4.843,20.65232 -4.37532,30.42777 0.43765,9.14708 2.23231,16.08372 5.17491,20.00181 2.75222,3.66456 8.60209,4.69219 12.81401,2.251 z M 1127.4241,400.7825 c 5.1613,-1.80763 14.7139,-7.9785 23.1662,-14.96523 10.6699,-8.81935 10.0103,-7.31048 7.5505,-17.27702 -4.141,-16.77758 -6.0111,-34.00341 -5.7176,-52.66139 0.2058,-13.06888 2.2556,-48.1579 3.2798,-56.14218 0.9262,-7.21792 -0.5179,-4.20367 -9.0793,18.95551 -4.0973,11.0836 -12.1241,31.98681 -17.8374,46.4516 -5.7134,14.46476 -11.3864,30.24835 -12.6067,35.07462 -2.8343,11.20837 -3.0509,21.67684 -0.6052,29.21421 1.7197,5.29996 5.8254,12.43536 7.2736,12.64126 0.3478,0.0495 2.407,-0.53167 4.5761,-1.29138 z m 197.0353,-14.20056 c 4.1833,-2.24621 9.4899,-9.90404 12.4262,-17.93159 3.964,-10.83668 6.4672,-35.6379 4.937,-48.9116 -1.4045,-12.18451 -5.4799,-23.84507 -10.052,-28.76145 -2.7179,-2.92261 -4.265,-3.73762 -8.1413,-4.28876 -6.0005,-0.85318 -9.5721,0.94739 -14.9737,7.54883 -7.6321,9.32744 -11.9767,22.03446 -13.6404,39.89566 -2.3553,25.28838 3.7745,46.89971 14.759,52.03289 4.349,2.03236 11.308,2.22951 14.6852,0.41602 z M 1110.7557,273.59235 c 12.4099,-33.07917 18.4039,-54.33397 23.0045,-81.57397 3.5786,-21.18844 4.3016,-31.15939 2.7463,-37.87249 -0.667,-2.87885 -0.7898,-2.9476 -2.819,-1.57615 -2.5978,1.75572 -8.1026,10.92441 -11.2001,18.65473 -7.3211,18.27104 -16.2293,65.10207 -18.4266,96.87071 -1.1998,17.34648 -1.2041,22.50448 -0.018,21.58303 0.5264,-0.40881 3.5472,-7.64747 6.7128,-16.08586 z m 96.381,-10.53758 c 14.0161,-37.36517 21.5524,-65.81851 24.8796,-93.93305 2.2456,-18.97334 2.118,-26.78295 -0.4585,-28.0691 -1.5293,-0.76338 -8.4057,9.45142 -11.7832,17.50386 -4.1113,9.80176 -6.6717,19.08069 -10.6573,38.62114 -5.5423,27.17381 -9.421,58.96619 -9.6191,78.84803 -0.067,6.71667 0.8157,5.21778 7.6385,-12.97088 z m -211.06266,-2.77445 c -5.92386,-2.7907 -11.15032,-9.10295 -13.49805,-16.30222 -2.66682,-8.17773 -1.24341,-19.4039 3.3947,-26.77344 10.26342,-16.30764 38.63541,-22.11517 54.35081,-11.12524 11.7887,8.24392 13.9808,29.47724 4.376,42.38642 -10.0279,13.47789 -33.1611,19.09877 -48.62346,11.81448 z"
       id="path3058"
       inkscape:connector-curvature="0"
       inkscape:export-filename="/home/tin/lab/carrillo/encuestas/static/images/logotipo.png"
       inkscape:export-xdpi="99.655396"
       inkscape:export-ydpi="99.655396" />
    <path
       style="fill:#fa7d81"
       d="m 294.34561,564.12506 c -42.24707,-15.39093 -71.84485,-59.76637 -74.84765,-112.21776 -0.98748,-17.24885 0.0178,-31.63895 3.70123,-52.98041 10.84409,-62.82973 39.81842,-120.1631 79.33566,-156.98656 20.44116,-19.04774 46.15613,-31.94945 71.50798,-35.87701 8.41981,-1.30443 10.78782,-1.23233 25.14259,0.76551 15.2949,2.12873 16.13435,2.35636 24.08147,6.53227 11.64999,6.12159 17.56921,11.20279 25.88474,22.22004 14.21094,18.8281 18.4622,40.28961 13.33729,67.33009 -5.74505,30.31242 -24.06889,59.2704 -49.70913,78.55757 -19.56042,14.7138 -40.57932,21.08699 -60.42844,18.32269 -8.05122,-1.12122 -14.48518,-4.65566 -16.57289,-9.10407 -1.95905,-4.17422 -3.22675,-17.12881 -2.30832,-23.58834 1.41008,-9.9173 6.12523,-12.73563 18.45438,-11.03048 23.94408,3.31154 51.21989,-15.15747 61.76207,-41.82035 5.66857,-14.33671 6.08848,-28.68122 1.24221,-42.43448 -5.21037,-14.78656 -16.97821,-22.29794 -34.09702,-21.76406 -34.43143,1.07378 -67.56069,37.31649 -88.93725,97.29543 -13.25854,37.20117 -19.72064,81.65123 -16.07172,110.55053 3.59131,28.44301 16.14668,48.30853 35.80482,56.65152 14.56648,6.18206 38.84762,5.3455 61.04748,-2.10329 24.16807,-8.10919 41.62942,-19.38556 77.3865,-49.97545 11.1365,-9.5272 23.46587,-19.91474 27.39858,-23.08342 3.9327,-3.16869 7.21298,-6.20158 7.2895,-6.73977 0.0765,-0.53818 1.54858,-6.04009 3.27125,-12.22644 4.13027,-14.83236 12.33492,-34.49006 18.84266,-45.14545 14.78098,-24.20155 37.72219,-42.76782 57.37639,-46.43456 9.15556,-1.7081 12.0566,-1.06504 17.55546,3.89155 2.56828,2.31499 5.6811,4.62147 6.91738,5.12553 1.23627,0.50405 6.55653,0.50447 11.82279,9e-4 10.978,-1.04967 13.89129,-0.27163 17.31377,4.6239 4.93955,7.06558 5.30259,20.84807 1.64001,62.26296 -2.48592,28.1098 -2.62914,38.61156 -0.64794,47.50941 2.02143,9.07841 5.83774,10.05615 15.06934,3.86072 7.24062,-4.85925 14.61553,-13.25281 24.43144,-27.80593 9.29137,-13.77545 8.78189,-11.72737 11.44916,-46.02538 1.81064,-23.28286 6.47344,-52.88874 9.27722,-58.90447 2.38497,-5.11714 7.00377,-8.0526 14.17139,-9.00655 16.41678,-2.18496 17.7518,-0.12793 19.59832,30.19754 0.53184,8.73453 1.3943,16.09421 1.91637,16.35487 0.52273,0.26093 2.37999,-3.75807 4.1326,-8.94265 10.5514,-31.21326 26.72212,-46.97704 45.45721,-44.31321 8.46312,1.20332 14.01863,6.64166 15.65127,15.32122 0.37207,1.97808 -0.0153,11.6953 -0.86094,21.59383 -2.24507,26.28102 -1.47971,34.18007 3.92197,40.47694 5.19523,6.05619 14.23172,5.27125 26.85797,-2.33303 3.28105,-1.97604 6.97366,-4.1949 8.2058,-4.93083 2.1697,-1.29591 2.39475,-2.409 7.14635,-35.34597 4.21432,-29.21308 5.20454,-34.47563 7.02292,-37.32509 3.81218,-5.97378 9.80896,-8.1374 21.28694,-7.68027 4.83089,0.19239 5.90126,0.56317 7.40455,2.56479 2.31463,3.08194 3.80551,12.88068 4.59876,30.22535 0.35568,7.77716 1.00583,14.19135 1.44478,14.25376 0.98281,0.13975 1.54845,-1.10853 5.0927,-11.23853 10.29433,-29.42278 26.42864,-44.84311 44.29327,-42.33316 7.38186,1.03716 12.57419,4.88107 14.99129,11.09823 1.34049,3.44794 1.53828,6.89419 0.9409,16.39373 -0.41601,6.61543 -1.0974,17.45417 -1.51419,24.08606 -0.83403,13.27085 0.63452,21.07158 4.97229,26.4122 4.14185,5.09941 12.57391,4.58544 24.23166,-1.47703 11.07038,-5.757 9.8013,-2.83017 15.9321,-36.74365 3.98602,-22.04936 5.99044,-31.09797 7.53902,-34.03372 4.51396,-8.5574 21.27608,-16.88375 33.04078,-16.41252 4.6349,0.18566 5.8521,0.61353 7.9114,2.78086 4.5339,4.7721 4.9101,7.87722 2.9863,24.65029 -0.9738,8.49021 -3.2046,22.93647 -4.9568,32.10287 -1.7523,9.16635 -3.653,22.3046 -4.2239,29.19612 -2.8535,34.44637 -2.6322,43.36775 1.2249,49.39695 1.8742,2.92975 2.058,2.99624 6.4519,2.33286 5.6925,-0.85944 20.5056,-11.81372 31.382,-23.20693 l 7.4803,-7.83572 -2.5147,-10.64932 c -4.0895,-17.31905 -5.8211,-32.57881 -5.672,-49.98548 0.2342,-27.31422 2.4274,-51.61544 7.5164,-83.27109 6.5185,-40.5481 11.7201,-59.69601 23.7806,-87.54098 16.6637,-38.47262 39.0291,-60.389414 60.5106,-59.297054 10.6339,0.540759 18.1993,8.151364 22.5659,22.701024 2.5745,8.5779 4.4165,23.81021 4.3341,35.84189 -0.047,7.50345 0.2276,9.60915 1.1573,8.73465 0.2137,-0.20109 2.6151,-5.87433 5.3362,-12.60724 17.2204,-42.60743 40.1079,-66.365749 62.8206,-65.210771 16.2933,0.828538 24.6381,16.267571 27.0386,50.025071 0.5187,7.29426 -0.027,13.15829 -3.4339,36.88389 -3.4724,24.188 -4.6585,30.21273 -8.3148,42.25022 -6.5059,21.41971 -14.7035,43.95234 -31.4452,86.43419 l -15.2657,38.73679 -2.0659,14.35211 c -2.022,14.04364 -2.0192,14.49981 0.097,21.22503 2.5218,8.01126 5.681,12.92845 8.5703,13.33925 3.2426,0.46105 10.2083,-3.15745 20.647,-10.72538 l 9.6626,-7.0054 -1.775,-10.19093 c -3.0226,-17.3516 -3.17,-25.8729 -0.7328,-42.36455 2.4958,-16.88586 5.4253,-25.03627 13.2683,-36.91105 18.6744,-28.27475 52.2266,-42.5206 88.0995,-37.4061 30.573,4.3588 50.9133,16.66855 83.9075,50.7798 l 5.2291,5.40612 -0.2708,10.44976 c -0.1488,5.74737 -0.2808,12.38003 -0.2932,14.73927 -0.023,5.28452 -0.8639,5.27619 -6.4485,-0.064 -12.3441,-11.80374 -54.1975,-41.63825 -59.463,-42.38691 -1.9653,-0.27943 -1.8802,0.28768 0.8742,5.82761 3.5697,7.17967 7.5436,20.91404 8.9771,31.02631 1.8918,13.34377 1.631,24.1417 -0.8954,37.0845 -7.8613,40.2744 -33.6505,66.41474 -67.0312,67.94392 -14.1961,0.65034 -26.7916,-3.547 -37.9834,-12.65762 -2.8609,-2.32889 -5.3866,-4.26064 -5.6128,-4.29281 -0.2262,-0.0321 -5.5155,3.35779 -11.7541,7.53325 -14.3699,9.6178 -24.3389,14.75775 -35.7134,18.41381 -7.9225,2.54651 -9.8239,2.77411 -15.9269,1.90639 -8.5404,-1.21431 -15.0079,-5.3622 -22.6142,-14.5031 -2.7917,-3.35497 -5.3737,-6.14228 -5.7375,-6.19403 -0.3641,-0.0518 -6.0619,3.69933 -12.662,8.33576 -14.6985,10.32551 -27.6321,17.20043 -39.5039,20.99817 -7.9093,2.53023 -9.8306,2.75851 -15.9248,1.89202 -9.4903,-1.34937 -15.8114,-5.80273 -24.6977,-17.3999 -3.7024,-4.8318 -6.8788,-8.806 -7.0588,-8.8316 -0.18,-0.0256 -7.8433,5.60423 -17.0296,12.51071 -17.4601,13.12707 -28.1254,19.13018 -41.1387,23.15555 -33.25917,10.28803 -50.95867,-2.9782 -52.40095,-39.27581 -0.19961,-5.02317 -0.74321,-9.18709 -1.20793,-9.25317 -0.46477,-0.0661 -3.46132,1.07294 -6.659,2.53119 -9.35865,4.26784 -17.70843,5.4861 -28.03186,4.08993 -8.16466,-1.10422 -9.47187,-1.57201 -15.07525,-5.39483 -9.29235,-6.33959 -16.01776,-16.69599 -21.13936,-32.5523 -2.23078,-6.90644 -4.36656,-12.6254 -4.74618,-12.70881 -1.07716,-0.23669 -2.0206,3.35279 -12.78215,48.63194 -5.55575,23.37569 -10.93284,44.90877 -11.94913,47.85129 -4.46258,12.92091 -11.13057,17.55106 -22.87153,15.88168 -14.02703,-1.99441 -20.51777,-14.43098 -22.60431,-43.31099 -0.38996,-5.39695 -0.87764,-10.19882 -1.08432,-10.67077 -0.20645,-0.47198 -4.19237,1.01672 -8.8576,3.30821 -11.66398,5.72916 -20.37741,7.28362 -31.74169,5.66262 -7.73554,-1.1029 -9.60091,-1.74016 -14.15307,-4.83117 -10.46543,-7.10624 -17.37075,-17.99156 -23.04429,-36.32623 -1.61397,-5.21569 -3.24829,-9.52769 -3.63185,-9.58222 -0.89896,-0.12781 -1.67331,2.86401 -12.22884,47.24905 -9.4034,39.54036 -11.80733,48.6843 -14.23672,54.15278 -2.32345,5.23004 -6.50349,9.35813 -10.93631,10.80042 -4.93859,1.60686 -14.45349,0.42982 -18.17067,-2.24781 -3.40256,-2.45097 -8.44917,-9.54305 -9.94155,-13.97098 -0.63913,-1.89636 -1.50412,-3.49655 -1.92217,-3.55599 -0.41805,-0.0594 -3.92242,3.13535 -7.78745,7.09953 -9.60403,9.85034 -20.69472,17.32291 -30.49759,20.54834 -7.24962,2.38533 -8.77217,2.52846 -15.98615,1.50274 -10.095,-1.43534 -16.26259,-5.35718 -23.65353,-15.04076 -2.82454,-3.70071 -5.31624,-6.75428 -5.5371,-6.78567 -0.22086,-0.0314 -2.78742,2.44446 -5.70346,5.5019 -9.87556,10.35443 -23.41887,19.46621 -34.51238,23.21949 -21.17295,7.16347 -40.80018,1.13882 -53.80067,-16.51431 -2.92456,-3.97121 -5.75864,-7.02738 -6.29794,-6.79148 -0.53929,0.2359 -4.5545,4.26465 -8.92271,8.95279 -30.75884,33.01164 -56.10004,50.49529 -89.54227,61.77787 -19.15398,6.46208 -43.56511,11.08772 -59.68641,11.30995 -9.86612,0.13601 -25.32398,-2.47109 -34.5241,-5.82277 z m 256.12181,-91.45832 c 3.84212,-1.80317 9.87327,-11.58234 13.10962,-21.25652 2.40852,-7.19954 3.36978,-13.30126 7.23857,-45.94757 2.45368,-20.70506 4.15945,-38.04689 3.7906,-38.53739 -1.14995,-1.52934 -8.06315,1.71807 -13.35768,6.27465 -13.4592,11.58324 -24.72416,36.25255 -28.38233,62.1548 -2.45171,17.35972 -0.7694,28.91101 5.17839,35.55646 3.14502,3.51396 7.3961,4.11471 12.42283,1.75562 z m 582.09798,-73.58913 c 3.5265,-1.90647 11.1955,-7.24113 17.0422,-11.85481 12.1931,-9.62176 11.6916,-8.16219 8.0929,-23.55186 -2.9846,-12.76386 -4.8002,-29.62154 -4.7584,-44.1831 0.046,-16.02292 1.9249,-46.28699 3.6089,-58.13109 0.7695,-5.41242 0.9853,-9.8996 0.4794,-9.97154 -0.506,-0.0719 -1.7916,2.35879 -2.8571,5.40159 -4.0215,11.48413 -18.1976,48.67734 -28.2113,74.01579 -10.3194,26.11263 -10.4034,26.38693 -11.8609,38.73999 -1.3815,11.71022 -1.3347,12.84438 0.7986,19.30463 2.7513,8.33162 5.8186,12.92386 8.9279,13.36597 1.2793,0.18189 5.2114,-1.22911 8.7378,-3.13557 z m 193.5185,-12.52 c 3.4928,-2.45655 8.2142,-9.52709 11.1059,-16.63138 3.4458,-8.46627 6.6072,-34.66438 5.6318,-46.67191 -0.7867,-9.6924 -4.1448,-22.65982 -7.2576,-28.03053 -4.8398,-8.35038 -12.7764,-11.41002 -20.1831,-7.78077 -11.6187,5.69313 -21.8706,32.1749 -21.6195,55.84607 0.2112,19.90147 4.3753,34.00265 11.9804,40.56953 3.6778,3.17577 4.7723,3.59514 10.7777,4.12973 5.3978,0.48048 7.2384,0.20514 9.5644,-1.43074 z M 1109.7553,277.97238 c 20.1643,-52.80594 31.8998,-106.34272 27.1942,-124.05718 l -1.0671,-4.01752 -3.2746,2.91926 c -4.5879,4.09035 -11.3454,18.24534 -14.9954,31.41081 -4.3916,15.84052 -11.6578,54.29853 -12.8121,67.81165 -1.4648,17.14576 -2.5823,36.25351 -2.247,38.41687 0.5402,3.48422 2.2096,0.59046 7.202,-12.48389 z m 97.0618,-12.438 c 19.8147,-52.56929 31.141,-104.68255 26.5699,-122.25091 l -0.9675,-3.71851 -2.7224,1.9147 c -9.8723,6.94348 -19.3296,37.95425 -26.2876,86.19819 -3.1167,21.60825 -5.5735,50.73909 -4.489,53.21873 0.8941,2.04383 2.5501,-1.17797 7.8966,-15.3622 z m -212.98425,-7.42895 c -16.12752,-10.49797 -16.04037,-36.23287 0.16462,-48.59687 9.37673,-7.1542 23.20713,-9.99841 35.59583,-7.32023 15.1424,3.27349 22.5428,15.25574 20.0163,32.4083 -1.2473,8.46709 -4.4231,13.95445 -11.351,19.6126 -11.5806,9.45781 -32.9963,11.33603 -44.42576,3.89618 z"
       id="path3056"
       inkscape:connector-curvature="0"
       inkscape:export-filename="/home/tin/lab/carrillo/encuestas/static/images/logotipo.png"
       inkscape:export-xdpi="99.655396"
       inkscape:export-ydpi="99.655396" />
    <path
       style="fill:#f85c61"
       d="m 300.16846,565.79539 c -8.2698,-2.49178 -24.68237,-10.74709 -31.05267,-15.61907 -27.3545,-20.92065 -44.45439,-53.11177 -48.65599,-91.5965 -1.67975,-15.38589 -1.1833,-28.85845 1.86873,-50.71259 4.92043,-35.23269 14.29546,-65.24996 30.48947,-97.62201 24.13111,-48.23836 61.08007,-84.93771 98.80841,-98.14092 41.85946,-14.6489 80.96175,-3.50474 101.09621,28.81246 4.94003,7.92906 9.93225,22.86857 11.24039,33.63743 1.32624,10.91798 -1.47068,32.19019 -5.77115,43.89285 -8.86421,24.1218 -23.93186,45.38568 -42.77173,60.36062 -19.64277,15.61314 -38.76789,22.37886 -59.32731,20.98765 -14.47394,-0.9794 -20.11959,-5.42991 -21.88531,-17.25233 -2.24874,-15.0563 0.0265,-23.98982 6.61791,-25.98498 1.56845,-0.47476 7.51264,-0.55038 13.2093,-0.16801 9.36783,0.62874 11.21779,0.41125 19.35919,-2.27606 27.9793,-9.23541 47.66042,-39.4881 44.97583,-69.13427 -1.34662,-14.87042 -8.71032,-27.21592 -19.00681,-31.86536 -6.97427,-3.14928 -20.12062,-4.28862 -28.27368,-2.45036 -25.62189,5.77694 -50.80397,31.53116 -68.8935,70.45878 -26.45665,56.93312 -35.20196,123.86715 -20.99032,160.65344 3.31434,8.57907 11.11642,20.03117 17.25308,25.32456 14.47885,12.48922 39.3549,15.50329 66.56507,8.06528 27.71977,-7.57733 46.8652,-19.32815 86.14381,-52.8722 38.32259,-32.72763 33.98387,-28.25604 36.01472,-37.11744 2.26509,-9.88348 9.0336,-28.63738 13.81925,-38.28982 16.05863,-32.38957 41.47609,-54.6323 66.51022,-58.20288 6.89274,-0.9831 10.16626,0.21958 15.65971,5.75336 3.98435,4.01358 8.65601,5.1058 16.5932,3.8794 2.78833,-0.43083 7.23113,-0.48091 9.87292,-0.11132 4.10854,0.57508 5.2035,1.205 7.57097,4.3573 4.70062,6.25886 5.46751,17.70554 3.09096,46.13552 -3.45613,41.3447 -3.81878,48.21463 -2.95866,56.04738 1.18196,10.76335 2.77197,14.5465 6.49768,15.46013 7.24335,1.77619 19.03797,-8.79429 33.72911,-30.22848 10.83852,-15.81326 10.35799,-14.33427 11.48763,-35.35689 0.8413,-15.65668 7.55025,-64.0429 9.58265,-69.11173 3.06637,-7.64768 8.12059,-10.494 19.72804,-11.11 5.90859,-0.31357 6.59065,-0.15879 8.78227,1.99321 3.05453,2.99928 4.17615,9.18404 5.35834,29.54647 0.51813,8.92427 1.3875,16.28953 1.93201,16.36723 0.54448,0.0777 2.87478,-4.95839 5.17843,-11.19137 2.30365,-6.23299 5.64789,-14.22773 7.43167,-17.76609 4.09287,-8.11879 13.6614,-18.86703 19.66817,-22.09307 4.98227,-2.67581 12.97995,-4.26084 17.83613,-3.53489 4.52555,0.6766 10.38826,4.83041 12.73579,9.02363 2.86016,5.1089 3.04836,9.96196 1.22196,31.5102 -2.16484,25.54126 -0.28181,35.69088 7.47198,40.27507 5.38581,3.18419 16.95968,-0.17294 29.23921,-8.48116 l 5.27789,-3.57098 4.62553,-32.53208 c 4.98477,-35.05862 5.90507,-38.5578 11.18345,-42.52204 3.21204,-2.41234 10.02942,-3.95062 17.30611,-3.90496 8.50101,0.0533 9.94816,4.08776 11.48127,32.00788 0.45985,8.37453 1.18773,15.69462 1.6175,16.26687 0.82724,1.10148 2.83968,-3.07504 5.16264,-10.71429 4.19722,-13.80294 13.56619,-29.48695 21.84681,-36.57235 8.79448,-7.52511 21.23501,-9.74991 29.35539,-5.24976 9.17788,5.0862 10.18465,9.60316 8.14335,36.53607 -1.93862,25.57788 -1.37548,31.32056 3.79573,38.70854 2.981,4.25886 6.30572,5.20198 13.37256,3.79337 7.01037,-1.39734 21.48716,-9.1806 22.7996,-12.25793 0.49797,-1.16761 1.72861,-7.68747 2.73474,-14.48856 1.00609,-6.8011 3.30016,-20.12309 5.09781,-29.60443 2.75952,-14.55433 3.68239,-17.82727 5.92635,-21.01761 4.88961,-6.95172 16.31292,-12.6742 27.95012,-14.00152 8.1892,-0.93407 12.1309,1.1411 14.3678,7.56427 l 1.6656,4.78206 -5.636,37.58085 c -8.2191,54.80447 -9.4678,78.11259 -4.6856,87.4613 2.9892,5.84386 12.5377,3.07236 24.7206,-7.17546 9.1659,-7.70978 21.047,-20.09703 21.3552,-22.26475 0.1281,-0.90108 -0.6287,-4.93391 -1.6819,-8.96187 -8.0017,-30.6029 -7.9813,-69.5215 0.065,-124.2539 4.8581,-33.04389 8.2696,-49.3655 14.1378,-67.63856 17.4977,-54.48533 41.0382,-85.67123 66.8087,-88.505911 5.8092,-0.63899 6.8728,-0.492566 11.4568,1.577351 11.7612,5.31085 18.7531,23.68226 19.2208,50.5031 0.095,5.44979 0.1935,11.40147 0.2185,13.22596 0.072,5.19852 1.6249,3.26677 5.4802,-6.81554 7.7551,-20.28126 19.0882,-40.17687 29.2105,-51.28003 5.478,-6.0088 16.4526,-14.144418 21.421,-15.879693 1.8534,-0.647285 6.0507,-1.489108 9.3273,-1.870735 18.8247,-2.192558 29.4855,15.698718 30.922,51.894258 0.5571,14.03693 -4.8547,52.19504 -9.9698,70.29655 -5.2817,18.69108 -18.2929,55.09709 -34.3528,96.12132 -15.0873,38.5398 -18.0586,48.47159 -17.824,59.58089 0.1651,7.81964 3.2825,18.01557 6.9278,22.65886 l 2.6205,3.33776 4.6549,-1.49632 c 5.7536,-1.84949 19.4406,-10.51025 23.8927,-15.11868 l 3.3099,-3.42604 -1.6699,-8.28483 c -4.4357,-22.00872 -2.605,-47.96397 4.5962,-65.16249 20.4087,-48.74138 77.5302,-67.0513 129.5388,-41.52273 13.9753,6.85988 21.1079,12.42728 42.2811,33.00321 9.1161,8.85896 12.194,12.48008 12.2918,14.46114 0.2978,6.02967 -0.6768,25.28921 -1.3035,25.75985 -0.3727,0.27992 -3.6438,-2.03783 -7.2693,-5.15058 -22.8096,-19.58414 -56.6752,-42.92132 -59.3595,-40.90537 -0.3544,0.2662 0.7795,3.54076 2.5196,7.27681 10.0876,21.65707 12.8957,49.79768 7.1811,71.96629 -6.2326,24.17816 -16.6135,40.59309 -32.8686,51.97408 -13.2298,9.26274 -27.564,12.66043 -43.7959,10.38108 -10.0838,-1.41596 -16.3381,-4.0566 -25.4969,-10.76479 -3.6863,-2.70003 -7.0034,-4.94475 -7.3712,-4.98832 -0.3679,-0.0433 -4.9335,2.74346 -10.146,6.19339 -39.5803,26.19602 -57.9426,28.01171 -74.7115,7.38754 -2.7612,-3.39619 -5.5346,-6.24797 -6.163,-6.3373 -0.6283,-0.0894 -7.0072,3.77189 -14.1754,8.58055 -28.3458,19.01519 -46.6426,25.59454 -59.254,21.30705 -6.7048,-2.2794 -12.0357,-6.83971 -19.9521,-17.06771 -3.7866,-4.89231 -7.1188,-8.92839 -7.4049,-8.96907 -0.2862,-0.0407 -4.1124,3.13172 -8.5026,7.04982 -20.2038,18.03077 -46.9781,31.27245 -65.6663,32.47619 -22.70846,1.46272 -34.97563,-13.13135 -35.56867,-42.31558 -0.20676,-10.17454 -0.44641,-10.39956 -7.60076,-7.13696 -8.99807,4.10341 -16.38921,5.31156 -26.64933,4.35612 -7.43767,-0.69261 -9.85204,-1.32484 -14.12006,-3.69789 -11.32274,-6.29537 -19.0722,-17.75394 -24.81231,-36.68819 -3.1826,-10.49806 -4.18399,-12.32045 -5.41872,-9.86138 -0.32544,0.64814 -5.64401,22.28885 -11.81904,48.09047 -11.8222,49.39755 -14.39392,57.40227 -19.6235,61.08036 -6.24604,4.39298 -15.83346,4.4694 -22.56138,0.17987 -8.26022,-5.2665 -12.64,-17.25554 -14.39163,-39.39521 -0.50514,-6.38442 -1.14826,-11.9141 -1.42921,-12.28817 -0.28093,-0.37407 -1.18228,-0.33716 -2.00299,0.0821 -18.87425,9.64031 -23.57841,10.73323 -37.63981,8.74484 -9.87337,-1.39575 -11.37133,-1.86673 -16.02206,-5.0331 -9.48887,-6.46036 -17.52007,-19.70818 -22.3409,-36.85234 -2.47977,-8.8187 -3.79196,-10.62907 -5.09693,-7.03206 -0.44483,1.22616 -5.49533,22.0167 -11.2233,46.2012 -10.90484,46.04221 -13.57986,54.97272 -17.8799,59.69182 -4.83474,5.30592 -7.99039,6.3238 -16.05145,5.17766 -6.48904,-0.92264 -7.67662,-1.41892 -11.13292,-4.65243 -2.13417,-1.99659 -4.97884,-6.25076 -6.34409,-9.48751 -1.3613,-3.22734 -2.87967,-5.92543 -3.37417,-5.99574 -0.49451,-0.0703 -3.53759,2.67869 -6.76244,6.10889 -8.38224,8.91604 -22.9172,19.01105 -30.86994,21.44021 -17.00311,5.19359 -27.99482,1.64694 -39.59977,-12.77747 -3.02619,-3.76144 -5.93924,-6.90113 -6.47341,-6.97708 -0.53417,-0.076 -2.85697,1.98005 -5.16175,4.56889 -13.82789,15.53201 -34.85317,26.54889 -51.09113,26.77083 -14.46688,0.19774 -28.17589,-7.07344 -37.42617,-19.85062 -2.94188,-4.06353 -5.48268,-7.40725 -5.64624,-7.4305 -0.16355,-0.0232 -4.97132,4.86109 -10.6839,10.85411 -40.5113,42.49999 -73.19367,60.95906 -122.94905,69.44188 -21.16776,3.6089 -39.72839,3.26238 -53.895,-1.00619 z m 251.72422,-94.15101 c 5.13633,-3.8802 9.51528,-11.55422 12.92782,-22.65577 2.06284,-6.71073 3.29123,-15.00152 6.66875,-45.00943 2.27707,-20.23091 3.85181,-37.20403 3.49944,-37.71806 -1.10796,-1.61617 -6.68519,1.06774 -13.16221,6.334 -11.15287,9.06803 -20.2145,25.21361 -26.18532,46.65567 -4.96364,17.82518 -5.80498,28.88071 -3.12694,41.08978 1.83707,8.37516 5.59621,13.13192 10.98311,13.89784 3.50883,0.4989 4.84949,0.0847 8.39535,-2.59403 z m 579.78502,-71.5546 c 5.0089,-2.42543 24.6593,-16.93303 27.8494,-20.56079 1.5379,-1.74898 1.4664,-3.02308 -0.72,-12.84009 -6.3507,-28.51436 -6.9598,-56.16885 -2.2679,-102.96407 0.8356,-8.33309 1.1414,-14.98593 0.68,-14.78404 -0.4616,0.20189 -1.7141,2.84827 -2.7835,5.88085 -5.2508,14.89214 -14.072,38.13386 -24.9997,65.86926 -6.6326,16.83397 -13.0432,34.39173 -14.2457,39.01727 -4.0197,15.46253 -2.7212,29.39862 3.6458,39.13196 3.2135,4.91224 4.9321,5.07949 12.8416,1.24965 z m 192.8405,-12.13605 c 3.503,-1.77848 7.578,-6.7331 10.967,-13.33447 4.3602,-8.49333 8.2509,-30.7602 7.8978,-45.20074 -1.1434,-46.77172 -26.9707,-60.00697 -43.4934,-22.28826 -4.1486,9.47072 -7.5022,34.74177 -6.2233,46.89581 2.3439,22.27282 10.5501,34.29655 23.7999,34.87111 2.6317,0.11408 5.8052,-0.31044 7.052,-0.94345 z M 1111.0696,275.59185 c 15.132,-40.47148 21.9645,-66.11601 25.3934,-95.30989 2.547,-21.68714 2.2566,-28.97079 -1.1745,-29.45865 -4.2157,-0.5994 -13.3177,16.23021 -18.3334,33.89904 -6.3915,22.51468 -13.8043,71.08997 -14.7633,96.74287 -0.6636,17.75149 0.2773,17.12909 8.8778,-5.87337 z m 95.4917,-8.07364 c 14.3961,-37.40698 23.0851,-69.73204 26.4124,-98.26037 3.0216,-25.90503 1.6227,-33.88119 -4.7634,-27.16227 -6.2626,6.58878 -12.5888,21.82598 -17.1155,41.22241 -7.0627,30.26391 -11.0525,58.26277 -12.4002,87.02132 -0.8447,18.02134 -0.044,17.73429 7.8666,-2.8211 z m -209.46461,-7.9456 c -11.90793,-6.26684 -17.48234,-19.13462 -14.12653,-32.60919 3.87844,-15.57314 18.56964,-25.32281 38.21914,-25.36376 11.0764,-0.0231 17.7255,2.94246 23.3235,10.40247 9.1887,12.24498 6.0587,32.27788 -6.5693,42.04653 -10.7624,8.32552 -30.4613,10.98952 -40.84681,5.52395 z"
       id="path3054"
       inkscape:connector-curvature="0"
       inkscape:export-filename="/home/tin/lab/carrillo/encuestas/static/images/logotipo.png"
       inkscape:export-xdpi="99.655396"
       inkscape:export-ydpi="99.655396" />
    <path
       style="fill:#f62c31"
       d="M 296.3947,563.92129 C 252.644,548.00648 223.59201,505.02585 220.47779,451.6069 c -2.50708,-43.00496 11.09802,-99.98361 34.43543,-144.21667 30.48043,-57.77176 72.35709,-93.08251 118.98812,-100.33177 8.43961,-1.31203 10.75573,-1.2408 25.14151,0.77309 14.85576,2.07972 16.31564,2.46177 23.37164,6.11705 29.52068,15.29283 44.0488,43.76449 40.47594,79.32323 -3.55783,35.40927 -25.08211,70.35006 -56.37485,91.51442 -17.046,11.52877 -35.8929,16.39135 -53.703,13.85556 -9.29161,-1.32314 -13.50121,-3.69314 -16.07172,-9.04911 -2.16675,-4.51467 -3.27512,-15.35872 -2.28301,-22.33633 1.34085,-9.43048 5.41382,-11.86535 17.07459,-10.20737 19.61321,2.78867 43.16895,-9.33758 56.18414,-28.92301 10.50962,-15.81503 14.044,-34.71672 9.76644,-52.23038 -7.13317,-29.2054 -40.44744,-35.88258 -70.7088,-14.17219 -26.80365,19.22974 -48.42594,56.33474 -63.43665,108.86069 -3.57745,12.51835 -9.90279,56.9191 -9.72886,68.29173 0.22457,14.68319 2.16257,27.68798 5.82329,39.07684 2.93044,9.11689 4.61539,12.41062 10.04699,19.63985 10.14401,13.50117 19.39932,19.04117 35.67759,21.35568 26.35964,3.74792 57.69952,-5.49703 88.47256,-26.09847 6.48509,-4.34153 20.79101,-15.64377 31.79093,-25.11605 10.99991,-9.4723 24.52179,-20.94371 30.04863,-25.49205 l 10.0488,-8.26971 2.37401,-9.15505 c 5.48336,-21.14588 14.70681,-42.25282 24.62456,-56.35087 14.60023,-20.75417 34.18054,-35.39049 51.72348,-38.66335 9.22827,-1.72165 11.83036,-1.07117 17.9409,4.48518 6.00421,5.45961 7.3218,5.79566 17.92004,4.57046 10.52314,-1.21653 12.54155,-0.79131 16.13655,3.39948 5.55403,6.47446 6.02318,19.76 2.21916,62.84402 -2.55563,28.94475 -2.58543,39.68372 -0.13537,48.75634 1.66989,6.1836 3.60886,7.81401 8.29327,6.9735 8.90945,-1.59858 23.24335,-16.44874 36.28751,-37.59446 l 5.61472,-9.10195 0.71847,-13.73393 c 0.39518,-7.55365 2.01944,-24.68482 3.60947,-38.06928 3.11815,-26.24752 5.82477,-38.22654 9.50798,-42.08058 3.01431,-3.1541 10.93977,-5.54249 17.54937,-5.28861 9.56198,0.36728 10.48267,2.8201 12.10781,32.25654 0.75847,13.73815 1.57418,18.12845 3.15034,16.94503 0.3167,-0.23785 2.41439,-5.59086 4.66154,-11.8956 6.27655,-17.60989 11.19316,-26.33133 19.49657,-34.58437 7.38499,-7.34018 15.71811,-10.32986 25.08158,-8.99853 5.47844,0.77895 9.04042,3.08974 11.95413,7.75513 3.0706,4.91655 3.34393,9.10939 1.79476,27.53164 -0.7617,9.05797 -1.41321,18.73764 -1.44778,21.51038 -0.0952,7.63979 2.02338,15.67327 5.27539,20.00332 3.66602,4.88133 8.62663,5.85838 16.9414,3.33685 5.39586,-1.63634 17.62213,-8.16808 20.96289,-11.19917 1.24206,-1.12693 2.56385,-8.37646 6.42335,-35.22996 5.99566,-41.71657 5.95543,-41.62834 19.91051,-43.70085 7.41304,-1.10093 12.4331,-0.30019 14.16278,2.25909 2.10392,3.11307 3.0824,9.86145 4.12867,28.47469 0.52472,9.33465 1.19385,17.2914 1.48697,17.68168 1.18087,1.57233 2.83233,-1.37083 6.13966,-10.94182 10.84736,-31.39085 26.16133,-46.7851 44.04246,-44.27332 6.28186,0.88236 8.52121,2.1 12.16121,6.61238 3.53877,4.38688 4.03563,11.25796 2.27286,31.43138 -1.71289,19.60261 -1.6079,25.05419 0.62227,32.31076 2.02626,6.59311 5.63094,10.35143 10.60681,11.05891 5.614,0.79823 15.79332,-2.66353 23.44679,-7.9737 l 6.40958,-4.44715 5.34088,-30.04738 c 3.89884,-21.93464 5.89775,-31.10197 7.40344,-33.95338 5.83451,-11.04911 31.79191,-20.06208 39.14861,-13.59318 4.8239,4.24192 5.0111,7.08923 1.9181,29.18682 -1.5634,11.16611 -4.0188,27.40717 -5.4576,36.0911 -2.7361,16.51376 -5.5818,48.47506 -5.0176,56.35483 0.5256,7.34272 3.5506,15.56767 6.109,16.61079 6.0712,2.47534 19.6012,-5.7545 34.2935,-20.85954 11.5,-11.82326 10.7931,-9.99024 8.1033,-21.01313 -5.706,-23.38219 -6.8329,-41.21259 -4.8743,-77.11562 1.1156,-20.4493 2.0571,-28.71781 6.2813,-55.16509 6.2514,-39.13859 9.8932,-53.56926 20.0552,-79.46816 17.3187,-44.13874 40.1948,-68.928212 62.8063,-68.059677 9.688,0.372127 17.7782,7.931727 21.959,20.518547 2.938,8.84518 4.9284,27.33543 4.472,41.54315 -0.1157,3.59453 0.061,7.25584 0.3923,8.13625 0.7815,2.07685 0.6202,2.39333 8.1915,-16.07485 14.6333,-35.69375 31.5131,-56.966403 49.9051,-62.892699 23.115,-7.448151 35.5477,8.203272 37.8939,47.704919 0.8471,14.26301 -5.8716,59.33619 -11.716,78.59712 -5.9386,19.57198 -15.7527,46.95176 -27.9035,77.84722 -20.2469,51.48097 -20.014,50.78776 -21.5366,64.07841 -1.2544,10.94867 -1.1891,12.53214 0.7751,18.82453 2.869,9.19118 5.9547,13.97741 9.3197,14.45587 1.4563,0.20707 5.1129,-0.8187 8.1257,-2.27944 5.9363,-2.87808 22.7882,-15.18476 23.0194,-16.81065 0.079,-0.54937 -0.5823,-5.25048 -1.4679,-10.44691 -2.897,-17.00395 -3.0228,-25.36231 -0.626,-41.58166 2.534,-17.14696 5.4666,-25.17912 13.672,-37.44832 16.3846,-24.4993 44.3737,-37.83688 77.7316,-37.04139 22.5038,0.53666 50.412,12.32345 69.0922,29.18055 3.14,2.8335 10.7411,10.10165 16.8912,16.15141 l 11.1822,10.9996 -0.3873,11.31909 c -0.2131,6.22552 -0.2941,12.35505 -0.1799,13.62122 0.2728,3.02797 -1.5345,2.71872 -5.0674,-0.86719 -1.5245,-1.5474 -11.5622,-9.57361 -22.3057,-17.83604 -19.4794,-14.98065 -38.0465,-26.64321 -40.037,-25.14832 -0.6171,0.46345 0.5066,4.05704 2.8103,8.98716 4.6253,9.89891 7.6163,21.00816 9.2182,34.23843 1.0313,8.51847 0.9,11.96767 -0.9787,25.69183 -1.6719,12.21362 -2.8528,17.61009 -5.1447,23.50989 -9.679,24.91645 -26.2485,41.74305 -47.1194,47.85074 -8.1713,2.39117 -21.4322,2.87821 -29.0234,1.06592 -8.0761,-1.92805 -16.6,-6.17434 -23.2327,-11.57377 -2.8609,-2.32888 -5.4192,-4.26529 -5.6853,-4.30311 -0.266,-0.0377 -5.0721,2.98297 -10.68,6.71289 -14.6236,9.72605 -25.9827,15.69459 -36.4369,19.14536 -8.1888,2.70291 -9.844,2.90665 -16.126,1.98472 -8.4412,-1.2388 -13.6894,-4.60129 -22.274,-14.27076 -3.0905,-3.48102 -5.8949,-6.36836 -6.2323,-6.41631 -0.3372,-0.0479 -5.2386,3.15907 -10.8918,7.1267 -14.4746,10.15887 -30.6787,18.90711 -41.2022,22.24424 -7.8991,2.50493 -9.8323,2.73028 -15.9198,1.85602 -6.0204,-0.86511 -7.7051,-1.56765 -12.8489,-5.36211 -3.4253,-2.52672 -8.5182,-7.82241 -12.0853,-12.56653 -3.3908,-4.50973 -6.7865,-8.28785 -7.5459,-8.39582 -0.7592,-0.10796 -3.6616,2.02632 -6.4494,4.74288 -7.3124,7.12537 -24.9533,19.22546 -35.9787,24.67826 -20.5549,10.16581 -36.38381,12.31224 -48.8033,6.61777 -10.71047,-4.91088 -16.5951,-17.18745 -17.64584,-36.81287 -0.32919,-6.14836 -1.10915,-11.25448 -1.7758,-11.6253 -0.65382,-0.36371 -2.55424,0.0378 -4.22315,0.89214 -10.44323,5.34639 -24.27257,7.42318 -34.07312,5.11684 -15.82144,-3.72321 -26.21755,-16.43343 -33.79668,-41.31966 -2.44081,-8.01447 -3.8383,-11.16497 -4.67407,-10.53728 -0.65574,0.49248 -6.1151,21.49685 -12.13193,46.67638 -6.01684,25.17954 -11.81862,48.41733 -12.89288,51.63953 -3.69805,11.0922 -9.56423,16.1722 -18.22044,15.77857 -7.28146,-0.33114 -11.50825,-2.07223 -15.04792,-6.19849 -6.05507,-7.05853 -9.07878,-17.77763 -10.33684,-36.64417 -0.38963,-5.84337 -1.04007,-11.10013 -1.44548,-11.68171 -0.45223,-0.64879 -2.11432,-0.31183 -4.30099,0.87183 -14.93679,8.08565 -23.75835,10.12861 -36.30178,8.40701 -18.13751,-2.48938 -28.38056,-13.7502 -36.75535,-40.40729 -3.47703,-11.06743 -4.50032,-13.18946 -5.67853,-11.77581 -0.33173,0.39801 -5.21109,20.05169 -10.84303,43.67485 -11.74907,49.28152 -13.5023,55.64911 -17.17808,62.38942 -3.18261,5.83596 -7.11416,8.17848 -13.86844,8.26321 -10.11294,0.12683 -17.74132,-5.38466 -21.37273,-15.44172 -0.9674,-2.67918 -2.42995,-4.95227 -3.25012,-5.05129 -0.82018,-0.0991 -3.92072,2.52158 -6.8901,5.82356 -8.57278,9.53299 -21.58545,18.65057 -31.07137,21.77075 -7.3367,2.41328 -8.8553,2.55857 -16.101,1.54053 -10.06559,-1.41418 -14.70582,-4.36717 -22.79142,-14.504 -3.16643,-3.96972 -6.18124,-7.27798 -6.69957,-7.35168 -0.51832,-0.0737 -3.45039,2.60915 -6.5157,5.96188 -10.5905,11.58346 -27.46306,21.92339 -40.43729,24.78092 -17.66442,3.89055 -35.33159,-3.11338 -46.48365,-18.42786 -2.86336,-3.9321 -5.67519,-7.21595 -6.24852,-7.29746 -0.57331,-0.0815 -2.548,1.56944 -4.38816,3.66881 -7.68068,8.76252 -27.20702,27.65769 -35.88082,34.72098 -30.22347,24.61171 -63.68772,38.16769 -107.0232,43.35381 -12.12562,1.45112 -33.88584,-0.68489 -43.83079,-4.30248 z m 253.30248,-90.06393 c 4.86107,-2.31022 11.19863,-11.51783 14.70731,-21.36778 2.40917,-6.76322 3.27778,-12.25685 7.36722,-46.5949 2.54983,-21.41022 4.36714,-39.28505 4.03847,-39.72181 -1.199,-1.59328 -6.06318,-0.14927 -11.09326,3.29322 -10.30938,7.05552 -19.44785,20.34858 -25.98236,37.79459 -4.64396,12.39857 -8.77465,35.94136 -7.93627,45.23252 1.60292,17.76316 8.96473,26.08535 18.89889,21.36416 z m 582.01372,-73.22142 c 7.165,-3.44746 27.8209,-19.21708 29.0297,-22.16225 0.5202,-1.26807 -0.1454,-6.36999 -1.6819,-12.88866 -3.1956,-13.55864 -5.1671,-31.93142 -5.0383,-46.95394 0.1503,-17.48406 2.059,-46.83939 3.8926,-59.85835 1.6064,-11.40435 1.3757,-16.33129 -0.5984,-12.78257 -0.5117,0.91966 -3.8341,9.68949 -7.3835,19.48855 -3.5494,9.79904 -9.7452,26.21167 -13.7684,36.4725 -22.6882,57.8636 -21.6796,54.90443 -23.1486,67.9177 -1.2285,10.88413 -1.1593,12.53102 0.7893,18.79829 2.8546,9.18118 5.943,13.97575 9.3109,14.4546 1.4563,0.20707 5.3249,-0.91158 8.5966,-2.48587 z m 194.9315,-13.55439 c 3.9856,-2.80124 8.3121,-9.19103 11.5218,-17.01676 3.1825,-7.75931 6.5934,-33.61959 5.8684,-44.49265 -1.5871,-23.80491 -9.0757,-38.78808 -20.1751,-40.36623 -11.7435,-1.66976 -22.1942,10.72549 -28.1866,33.43159 -3.0746,11.65002 -3.75,26.21816 -1.8406,39.68855 1.4704,10.372 3.1399,15.62221 6.6963,21.05881 4.2052,6.42844 8.1069,8.77161 15.8759,9.53428 5.8395,0.57327 7.1422,0.33948 10.2399,-1.83759 z m -217.8106,-103.9147 c 15.8167,-40.41902 26.2814,-78.60468 29.1068,-106.21028 1.4841,-14.50046 0.826,-26.02759 -1.554,-27.21557 -3.152,-1.57345 -9.779,7.57497 -15.5305,21.43947 -9.3181,22.46264 -19.9354,87.92134 -19.4666,120.01845 0.1061,7.26021 2.4498,4.73146 7.4443,-8.03207 z m 95.843,-9.09897 c 16.2264,-41.61289 27.0543,-80.96802 29.7528,-108.13855 1.4036,-14.13474 0.6921,-25.57273 -1.664,-26.74889 -3.562,-1.77798 -11.5368,10.15888 -16.9001,25.29629 -8.8692,25.03188 -19.0622,90.89373 -18.0599,116.69463 0.2471,6.36422 2.5465,3.98705 6.8712,-7.10348 z M 993.73269,256.84914 c -10.88183,-7.50135 -14.15409,-23.86614 -7.42392,-37.12742 6.56897,-12.94368 25.82883,-20.28374 43.31553,-16.50784 14.598,3.15215 21.362,14.35608 18.9483,31.38599 -2.1255,15.01997 -13.4154,24.73091 -31.0844,26.7462 -9.3784,1.06972 -18.06594,-0.57483 -23.75551,-4.49693 z"
       id="path3052"
       inkscape:connector-curvature="0"
       inkscape:export-filename="/home/tin/lab/carrillo/encuestas/static/images/logotipo.png"
       inkscape:export-xdpi="99.655396"
       inkscape:export-ydpi="99.655396" />
    <path
       style="fill:url(#linearGradient3891);fill-opacity:1"
       d="m 292.21317,561.36311 c -30.75134,-13.02406 -52.07723,-37.01056 -63.72711,-71.67777 -7.59683,-22.60628 -9.16601,-44.14635 -5.49522,-75.43282 2.68706,-22.90226 5.93584,-37.95499 12.60382,-58.39802 28.23409,-86.56154 85.03779,-144.45556 145.86319,-148.66296 10.02097,-0.69318 27.07495,2.00664 36.14446,5.72201 32.32534,13.2423 49.60012,46.14988 44.12728,84.06028 -4.44428,30.78565 -21.86162,60.5955 -47.14846,80.69486 -20.70842,16.46018 -40.38965,22.99772 -61.26599,20.3508 -14.74589,-1.86964 -17.86308,-6.12219 -18.63786,-25.42626 -0.48233,-12.01788 3.90513,-16.36165 14.9667,-14.81761 21.10695,2.94621 43.80965,-7.98165 57.53972,-27.6965 7.01232,-10.06891 10.37771,-18.49791 12.00744,-30.07395 2.30363,-16.36304 -0.78672,-30.28885 -8.86081,-39.92844 -5.59922,-6.68485 -11.89027,-9.97182 -21.65261,-11.3131 -27.39756,-3.76424 -55.85259,15.58187 -77.65096,52.79363 -29.35573,50.11281 -44.59672,122.0135 -35.24371,166.26511 5.15459,24.38778 18.96949,42.70713 37.16576,49.28395 19.47503,7.03902 48.9511,3.3476 76.81996,-9.62051 18.23308,-8.48432 31.06843,-17.56923 61.26553,-43.36397 13.10222,-11.19206 26.37172,-22.48661 29.48778,-25.09898 5.6417,-4.72976 5.67651,-4.79076 8.26981,-14.48007 10.10291,-37.74755 25.91519,-63.95447 48.97651,-81.17258 9.57286,-7.14729 17.27506,-10.83907 26.4144,-12.66078 8.66675,-1.72752 11.8408,-0.95434 17.42099,4.2439 5.4611,5.08725 9.62261,6.08504 19.35237,4.64005 7.97169,-1.1839 11.53549,-0.43989 14.67039,3.06274 5.12432,5.7254 5.82233,18.624 2.80758,51.88244 -3.66961,40.48301 -3.71868,50.56314 -0.29704,61.02074 1.41996,4.33986 1.91091,4.84347 5.47868,5.61999 8.37458,1.82271 19.59208,-7.87552 34.90723,-30.17949 11.25452,-16.39035 10.55833,-13.9903 12.52204,-43.16802 0.69081,-10.26406 2.69565,-27.35511 4.66161,-39.73948 3.06419,-19.30253 3.73308,-22.14093 5.98799,-25.40922 3.16179,-4.58273 10.10088,-7.11372 18.34081,-6.68974 4.81666,0.24784 6.02119,0.64789 7.13769,2.37057 1.99461,3.07756 3.02641,10.56605 3.95518,28.70531 1.21862,23.80054 2.64024,24.44021 9.85801,4.43572 5.44003,-15.07741 10.75049,-24.74306 17.4584,-31.77632 12.31111,-12.90818 28.51412,-14.50496 36.67231,-3.61396 3.76,5.0195 4.0888,10.21858 2.00815,31.75276 -1.66922,17.27586 -1.28144,26.75005 1.3586,33.19363 3.69539,9.01943 10.15707,11.8261 20.20839,8.77765 5.86147,-1.77774 16.18473,-7.25127 20.92822,-11.09644 l 2.79523,-2.26589 4.1363,-30.95024 c 4.44803,-33.28293 5.92263,-39.33099 10.4949,-43.0447 2.88343,-2.34197 11.59275,-4.00126 17.67873,-3.36812 6.57655,0.6842 7.57555,4.17412 9.06289,31.66046 0.46585,8.60873 1.27141,16.34217 1.79014,17.18545 1.63388,2.65602 3.53903,0.27715 5.92207,-7.39457 7.59079,-24.43709 19.87598,-42.32234 31.90579,-46.44967 10.6299,-3.64703 19.0595,-1.9621 24.15991,4.82911 3.75923,5.00541 4.05467,9.00439 2.2333,30.22886 -1.62822,18.97367 -1.38062,27.28329 1.02003,34.23301 3.17964,9.20485 8.98597,12.31715 18.88169,10.12095 6.01994,-1.33602 20.52663,-9.17307 22.05464,-11.91472 0.4906,-0.88027 3.37921,-15.32015 6.41914,-32.08866 6.19775,-34.18748 6.31224,-34.49748 14.87569,-40.27438 9.17435,-6.18902 24.95975,-9.09889 29.86185,-5.50479 1.0743,0.78765 2.5336,2.97835 3.2427,4.86818 1.1723,3.12358 0.7403,7.35417 -4.7513,46.51468 -7.0107,49.99704 -8.2663,65.83405 -6.0468,76.3001 1.8516,8.73177 3.1275,10.58097 7.6545,11.09424 8.1393,0.92285 22.1779,-8.91327 38.7667,-27.16193 l 4.9866,-5.48565 -2.5204,-10.61865 c -5.8948,-24.83548 -6.8736,-40.89415 -4.7489,-77.9127 1.2153,-21.17462 7.2909,-65.80686 11.6325,-85.45322 7.0901,-32.08412 21.0848,-67.44566 34.2303,-86.49262 8.9884,-13.02352 21.9801,-24.14602 31.8611,-27.27703 6.1951,-1.96304 14.316,-1.70112 18.9852,0.61233 7.4992,3.71555 13.4846,15.88768 15.7823,32.09499 1.3628,9.61411 1.9848,25.23966 1.2204,30.66498 -0.6161,4.40407 0.5368,9.07592 1.9796,7.99238 0.626,-0.47022 2.9946,-5.7754 5.2632,-11.78933 17.5515,-46.52485 41.2963,-72.980061 64.0885,-71.40422 7.2666,0.502409 11.2243,3.035604 16.1053,10.30854 10.3847,15.474 12.0794,52.09364 4.1326,89.30134 -5.8884,27.57034 -14.8881,54.8644 -35.007,106.16875 -20.0579,51.14845 -19.9724,50.89352 -21.3462,63.64491 -1.1037,10.24633 -1.0116,12.18476 0.8724,18.35292 2.4919,8.15819 6.7148,15.03153 9.4767,15.42423 1.0865,0.15447 3.5485,-0.20889 5.4714,-0.8076 4.5733,-1.42382 18.7431,-10.50113 23.7515,-15.2153 l 3.9402,-3.70872 -1.7395,-9.99264 c -3.0176,-17.33623 -3.1528,-24.82874 -0.7513,-41.66897 2.5093,-17.57672 4.7396,-23.93989 12.7185,-36.24382 6.1919,-9.54795 10.9348,-14.69985 19.3538,-21.02276 21.8952,-16.44402 54.9004,-21.60269 82.5842,-12.90784 24.2303,7.61019 39.3134,18.28177 69.8865,49.44576 2.1026,2.14334 2.2811,3.43783 2.0521,14.87935 -0.1385,6.89249 -0.4331,12.66856 -0.6559,12.83578 -0.2225,0.16719 -2.979,-1.94293 -6.1252,-4.68917 -12.8068,-11.17849 -38.249,-29.92298 -48.5108,-35.74045 -14.1758,-8.03617 -15.5865,-7.64226 -10.4373,2.91455 14.5785,29.88788 13.9063,68.02859 -1.717,97.43072 -16.034,30.17528 -49.026,44.50116 -77.153,33.50168 -6.0374,-2.36095 -13.5142,-7.05839 -18.0768,-11.35679 -1.3543,-1.27599 -2.8921,-2.23176 -3.4171,-2.12392 -0.5251,0.10782 -6.1358,3.60655 -12.4679,7.77497 -14.9789,9.86036 -26.0043,15.55295 -35.7594,18.4632 -16.0747,4.79561 -25.4335,1.28094 -38.3157,-14.3895 -2.1123,-2.56952 -4.2289,-4.72708 -4.7035,-4.79458 -0.4748,-0.0675 -5.9025,3.36515 -12.0616,7.6281 -23.0432,15.94904 -42.9678,24.80359 -54.3177,24.1389 -9.7346,-0.57012 -17.8963,-6.37731 -27.3289,-19.44524 -2.8556,-3.95595 -5.9243,-7.29677 -6.8196,-7.42407 -0.8952,-0.12729 -4.6428,2.54295 -8.3278,5.93386 -18.1634,16.71393 -45.4231,31.04654 -62.7289,32.98175 -9.53977,1.06677 -19.37421,-1.10414 -24.90463,-5.4976 -8.03231,-6.38102 -12.24676,-18.91411 -12.69341,-37.74818 -0.21689,-9.14547 -1.03333,-9.68964 -9.07454,-6.04837 -12.88933,5.83661 -27.54999,6.63469 -37.69823,2.05219 -11.94793,-5.39516 -19.60275,-16.17488 -26.2265,-36.93283 -3.97356,-12.45263 -5.87577,-15.6923 -7.44965,-12.68756 -0.33853,0.64628 -5.72761,22.4927 -11.97572,48.54761 -11.50241,47.96549 -14.40396,57.60004 -18.53709,61.55239 -6.8394,6.54023 -19.52596,5.39173 -26.18468,-2.37049 -5.56813,-6.49089 -8.39075,-16.59709 -9.71431,-34.78135 -0.38082,-5.23195 -0.77821,-10.54752 -0.88309,-11.81238 -0.2692,-3.24634 -1.92284,-3.13007 -8.7169,0.61294 -12.58948,6.93587 -24.21873,9.10223 -35.90233,6.6881 -16.34996,-3.37829 -26.95219,-16.47603 -34.42575,-42.52882 -2.76557,-9.64073 -5.03029,-12.50388 -6.5862,-8.32647 -0.4552,1.22212 -5.41368,21.56913 -11.01885,45.21555 -11.97879,50.5347 -13.25119,55.06032 -17.22255,61.25648 -3.72702,5.81494 -8.5582,7.69224 -16.87092,6.55569 -7.30419,-0.99864 -12.21432,-5.38636 -16.02448,-14.31952 -1.48667,-3.48558 -3.15585,-6.56345 -3.7093,-6.83973 -0.55345,-0.27626 -3.99669,2.692 -7.65165,6.59612 -9.82316,10.4929 -21.41501,18.65794 -30.93337,21.78881 -7.29088,2.39817 -8.62043,2.5112 -16.39916,1.39407 -10.35715,-1.48746 -13.62499,-3.59361 -22.14122,-14.2703 -3.23699,-4.05819 -6.37156,-7.44764 -6.96572,-7.53212 -0.59414,-0.0844 -3.21892,2.19904 -5.83283,5.0745 -13.54151,14.89642 -32.06421,25.39354 -47.23356,26.76803 -3.39876,0.30796 -8.5231,-0.14033 -13.35362,-1.16831 -10.90114,-2.31975 -19.28026,-8.08772 -26.28705,-18.09536 -2.80932,-4.01251 -5.75816,-7.38792 -6.55298,-7.50094 -0.79479,-0.113 -4.90601,3.50682 -9.13601,8.04404 -43.37381,46.52407 -80.17249,66.4377 -135.9019,73.54342 -9.76394,1.24494 -13.42803,1.19825 -26.7181,-0.34054 -13.8447,-1.60302 -16.26944,-2.1506 -23.97652,-5.41477 z m 254.7835,-85.68438 c 6.36376,-1.42933 11.78174,-7.4975 16.80893,-18.82608 2.37602,-5.35427 3.19103,-9.65361 6.60558,-34.84572 2.14233,-15.80581 4.50157,-35.12862 5.24277,-42.93954 1.25049,-13.17814 1.20877,-14.22146 -0.57872,-14.47561 -8.91072,-1.26697 -25.98504,16.11394 -33.99088,34.60122 -14.06056,32.46895 -14.84293,67.79966 -1.66875,75.35791 3.06378,1.75774 4.09408,1.91102 7.58108,1.12779 z m 581.33343,-72.47615 c 8.5181,-4.09817 15.5056,-8.7012 24.1537,-15.91181 11.1691,-9.31254 10.7633,-7.99062 7.1627,-23.33096 -2.9229,-12.4532 -4.8614,-29.56278 -4.895,-43.20465 -0.04,-16.30409 1.9209,-47.08093 4.0288,-63.22973 1.0446,-7.99962 1.6055,-14.9347 1.2474,-15.41121 -1.3972,-1.85885 -3.0137,1.35019 -8.7825,17.43507 -6.9056,19.25365 -12.8554,34.76044 -26.6816,69.53937 -9.6644,24.31031 -9.9258,25.16092 -11.8926,38.71136 -1.9575,13.48337 -1.9528,14.04043 0.139,20.77379 4.1082,13.22019 8.9541,17.78776 15.5201,14.62877 z m 195.3412,-13.55712 c 17.163,-5.34355 27.0925,-54.01378 17.3784,-85.18157 -3.9794,-12.7683 -9.497,-19.17391 -17.4955,-20.31117 -7.1063,-1.0104 -13.2104,2.90366 -19.4612,12.47882 -5.7085,8.7449 -8.9479,18.28742 -10.9266,32.18832 -3.794,26.68426 1.8169,50.57015 13.6637,58.1237 4.6128,2.94115 12.1756,4.15447 16.8412,2.7019 z m -218.2384,-95.85125 c 7.3741,-16.75989 19.7568,-53.23274 25.5327,-75.20532 5.2672,-20.03803 9.4549,-49.35298 8.5375,-59.76187 -0.383,-4.31438 -1.2595,-8.47043 -1.9532,-9.2352 -3.3348,-3.67546 -10.8112,5.24291 -16.9724,20.24564 -6.7099,16.3391 -15.8266,60.71092 -18.0525,87.86242 -1.4267,17.40461 -2.3263,37.09817 -1.7569,38.46125 0.8633,2.06657 3.2463,0.8575 4.6651,-2.36688 z m 96.5093,-10.74496 c 7.9849,-18.66348 20.8053,-56.92956 26.4958,-79.08431 4.4003,-17.13108 8.2854,-46.06235 7.4759,-55.67123 -0.3627,-4.31218 -1.2049,-8.44048 -1.8705,-9.17405 -3.8128,-4.20232 -12.3316,6.67998 -18.4907,23.62094 -6.3235,17.39275 -14.6027,59.69191 -16.7273,85.4616 -1.4747,17.88599 -2.2633,35.97961 -1.6311,37.42778 0.9276,2.12552 3.282,0.8458 4.7479,-2.58073 z m -201.2437,-23.50901 c -5.45473,-1.70731 -11.72629,-6.95874 -14.19158,-11.88318 -1.14178,-2.28071 -2.39144,-7.02504 -2.77703,-10.54294 -2.36109,-21.54112 17.69281,-37.08968 43.21331,-33.50489 12.7919,1.79689 19.7597,8.95978 21.2574,21.85299 1.7606,15.15632 -6.5971,28.10378 -21.3254,33.03708 -7.9187,2.65228 -19.5508,3.11487 -26.1767,1.04094 z"
       id="path3050"
       inkscape:connector-curvature="0"
       inkscape:export-filename="/home/tin/lab/carrillo/encuestas/static/images/logotipo.png"
       inkscape:export-xdpi="99.655396"
       inkscape:export-ydpi="99.655396" />
  </g>
</svg>
